<svg xmlns="http://www.w3.org/2000/svg" xmlns:xlink="http://www.w3.org/1999/xlink" viewBox="0 0 108.07 146.1"><defs><style>.cls-1{fill:url(#linear-gradient);}.cls-2{fill:url(#linear-gradient-2);}.cls-3{fill:url(#linear-gradient-3);}</style><linearGradient id="linear-gradient" x1="15.58" y1="91.82" x2="91.58" y2="17.15" gradientUnits="userSpaceOnUse"><stop offset="0" stop-color="#2838bf"/><stop offset="0.07" stop-color="#2343bf"/><stop offset="0.37" stop-color="#0f69bf"/><stop offset="0.52" stop-color="#0778bf"/><stop offset="1" stop-color="#00faf6"/></linearGradient><linearGradient id="linear-gradient-2" x1="5.33" y1="81.39" x2="81.33" y2="6.72" xlink:href="#linear-gradient"/><linearGradient id="linear-gradient-3" x1="16.8" y1="93.06" x2="92.8" y2="18.4" xlink:href="#linear-gradient"/></defs><g id="Layer_2" data-name="Layer 2"><g id="OBJECTS"><path class="cls-1" d="M54,0A53.63,53.63,0,0,0,15.23,16.43,1.5,1.5,0,0,0,16.31,19H62.22L78.46,35.22V52.53H58.4A1.51,1.51,0,0,0,56.9,54V71.8a6.61,6.61,0,1,0,3,0V55.53H80a1.5,1.5,0,0,0,1.5-1.5v-8.5h13.3v3.29a6.61,6.61,0,1,0,3,0V44a1.5,1.5,0,0,0-1.5-1.5H81.46V34.6A1.5,1.5,0,0,0,81,33.54L63.9,16.41A1.5,1.5,0,0,0,62.84,16H20a51,51,0,0,1,85,38.06,51.18,51.18,0,0,1-14,35.08V64.8a1.5,1.5,0,0,0-1.5-1.5H78.87a6.6,6.6,0,1,0,0,3H88.1V92.7a1.48,1.48,0,0,0,.9,1.37,1.41,1.41,0,0,0,.6.13,1.53,1.53,0,0,0,1-.4A54,54,0,0,0,54,0Zm8,78.23a3.61,3.61,0,1,1-3.61-3.6A3.61,3.61,0,0,1,62,78.23Zm37.86-23a3.61,3.61,0,1,1-3.61-3.61A3.61,3.61,0,0,1,99.87,55.25ZM72.44,68.4a3.61,3.61,0,1,1,3.61-3.6A3.61,3.61,0,0,1,72.44,68.4Z"/><path class="cls-2" d="M8,34.3a6.61,6.61,0,0,0,6.43-5.1H53.41l9.51,9.5v4.15H44.55a1.5,1.5,0,0,0-1.5,1.5V87.46a6.6,6.6,0,1,0,3,0V45.85H64.42a1.5,1.5,0,0,0,1.5-1.5V38.08A1.5,1.5,0,0,0,65.48,37L55.1,26.64A1.49,1.49,0,0,0,54,26.2H14.47A6.61,6.61,0,1,0,8,34.3ZM48.15,93.89a3.61,3.61,0,1,1-3.6-3.61A3.61,3.61,0,0,1,48.15,93.89ZM8,24.09A3.61,3.61,0,1,1,4.43,27.7,3.61,3.61,0,0,1,8,24.09Z"/><path class="cls-3" d="M71.11,82.17a6.61,6.61,0,0,0-1.5,13v9.86H54A51.09,51.09,0,0,1,3,54,42.21,42.21,0,0,1,5.34,40H32.67V66.6H17.81v-7a6.61,6.61,0,1,0-3,0V68.1a1.5,1.5,0,0,0,1.5,1.5h10v9.47a6.61,6.61,0,1,0,3,0V69.6h4.9a1.5,1.5,0,0,0,1.5-1.5V38.53a1.5,1.5,0,0,0-1.5-1.5H4.26a1.49,1.49,0,0,0-1.42,1A45.74,45.74,0,0,0,0,54a54.1,54.1,0,0,0,54,54H71.11a1.5,1.5,0,0,0,1.5-1.5V95.21a6.61,6.61,0,0,0-1.5-13Zm-58.41-29a3.61,3.61,0,1,1,4.43,3.51H15.49A3.61,3.61,0,0,1,12.7,53.13ZM31.38,85.5a3.61,3.61,0,1,1-3.61-3.61A3.61,3.61,0,0,1,31.38,85.5Zm39.73,6.89a3.61,3.61,0,1,1,3.61-3.61A3.61,3.61,0,0,1,71.11,92.39Z"/><text/></g></g></svg>